<?xml version="1.0" standalone="no"?>
<!DOCTYPE svg PUBLIC "-//W3C//DTD SVG 20010904//EN"
 "http://www.w3.org/TR/2001/REC-SVG-20010904/DTD/svg10.dtd">
<svg version="1.0" xmlns="http://www.w3.org/2000/svg"
 width="4940.000000pt" height="3219.000000pt" viewBox="0 0 4940.000000 3219.000000"
 preserveAspectRatio="xMidYMid meet">

<g transform="translate(0.000000,3219.000000) scale(0.100000,-0.100000)"
fill="#000000" stroke="none">
<path d="M9773 23138 c-18 -40 -64 -143 -103 -228 -40 -85 -117 -254 -172
-375 -55 -121 -111 -245 -125 -275 -32 -70 -209 -459 -278 -610 -29 -63 -65
-142 -80 -175 -15 -33 -40 -87 -55 -120 -15 -33 -37 -82 -50 -110 -13 -27 -46
-102 -75 -165 -96 -211 -252 -554 -285 -625 -18 -38 -51 -113 -75 -165 -24
-52 -93 -205 -155 -340 -62 -135 -133 -292 -160 -350 -26 -58 -57 -127 -70
-155 -129 -282 -250 -548 -286 -628 -24 -54 -62 -136 -84 -183 -22 -47 -40
-87 -40 -89 0 -1 -20 -45 -44 -96 -24 -52 -64 -139 -89 -194 -41 -93 -212
-468 -287 -630 -18 -38 -51 -113 -75 -165 -34 -76 -201 -442 -392 -860 -342
-748 -372 -820 -413 -999 -91 -395 -54 -694 126 -1026 235 -437 473 -637 869
-730 225 -53 482 -69 656 -39 351 60 593 229 801 560 97 155 136 245 331 774
l113 305 1428 0 1428 0 119 -320 c178 -477 196 -521 256 -635 178 -339 401
-545 698 -642 176 -58 393 -71 647 -38 311 40 521 122 710 277 204 166 447
599 502 893 27 146 29 216 12 370 -32 283 -72 405 -271 835 -20 44 -46 100
-57 125 -30 66 -128 278 -228 495 -48 105 -113 244 -143 310 -30 66 -72 156
-92 200 -20 44 -92 202 -160 350 -68 149 -140 306 -160 350 -67 144 -234 508
-303 660 -28 61 -70 153 -95 205 -24 52 -55 118 -67 145 -26 57 -112 243 -206
448 -35 76 -64 140 -64 142 0 2 -25 56 -55 120 -30 65 -55 118 -55 120 0 2
-19 43 -41 92 -23 48 -132 284 -242 523 -110 239 -229 498 -264 575 -36 77
-109 237 -163 355 -54 118 -112 247 -130 285 -17 39 -56 123 -86 188 -30 64
-79 172 -110 240 -140 308 -205 424 -320 572 -211 271 -476 436 -804 501 -72
15 -170 18 -620 21 l-535 4 -32 -73z m1225 -1470 c71 -26 146 -90 188 -158 19
-30 169 -368 335 -750 282 -653 299 -695 282 -708 -45 -35 -186 -94 -259 -109
-110 -22 -150 -10 -225 66 -85 87 -97 111 -449 914 l-42 97 -200 -362 c-236
-429 -256 -463 -320 -539 -112 -135 -253 -157 -354 -55 -78 78 -103 203 -66
323 18 57 564 1018 644 1134 108 156 288 212 466 147z m-1076 -1783 c36 -9
387 -194 999 -526 519 -281 946 -513 948 -515 7 -6 -135 -257 -168 -296 -61
-72 -143 -94 -233 -63 -40 13 -1903 1016 -1921 1034 -8 8 94 204 144 278 38
55 91 87 169 102 3 1 31 -6 62 -14z m190 -1497 c43 -28 99 -93 138 -158 30
-50 316 -685 394 -874 12 -29 16 -22 221 350 114 208 227 406 249 439 140 209
285 260 412 143 78 -72 108 -210 71 -330 -8 -26 -154 -289 -323 -584 -332
-577 -369 -630 -467 -679 -80 -39 -154 -50 -238 -36 -116 19 -198 72 -266 172
-24 34 -363 804 -629 1426 l-14 31 88 45 c100 51 145 67 216 76 60 8 116 0
148 -21z"/>
<path d="M23460 22574 c-346 -37 -636 -166 -856 -380 -33 -32 -455 -533 -937
-1112 l-876 -1052 -58 68 c-32 37 -193 229 -358 426 -1413 1690 -1394 1668
-1524 1767 -35 27 -65 48 -67 46 -1 -1 7 -29 18 -62 29 -83 36 -248 14 -336
-29 -114 -81 -206 -165 -290 -82 -81 -148 -124 -251 -160 l-65 -24 -792 -3
-793 -3 0 -1295 0 -1294 620 0 c681 1 679 1 805 -62 132 -65 222 -157 285
-293 46 -97 60 -160 60 -268 0 -243 -140 -460 -363 -562 -112 -51 -148 -55
-491 -55 -172 0 -448 -3 -614 -7 l-302 -6 0 -1654 0 -1654 738 3 c812 4 815 4
1022 70 350 111 550 327 633 683 21 89 21 103 27 1884 l5 1794 805 -941 c443
-517 808 -940 812 -939 3 1 368 427 810 946 l803 943 6 -1793 c6 -1955 2
-1831 60 -2009 112 -340 367 -536 796 -615 120 -22 440 -31 584 -16 581 61
883 320 970 831 7 43 13 404 16 1072 l5 1006 731 5 c618 3 750 7 847 21 684
100 1195 400 1624 955 267 344 455 757 541 1186 73 366 75 823 5 1188 -72 372
-240 751 -466 1053 -346 461 -749 746 -1228 869 -282 72 -181 68 -1876 70
-839 1 -1541 1 -1560 -1z m2280 -1419 c426 -93 787 -375 970 -760 90 -190 125
-353 125 -585 0 -131 -5 -196 -18 -259 -63 -290 -178 -504 -381 -707 -161
-162 -325 -264 -534 -334 -159 -53 -240 -65 -432 -65 -192 0 -273 12 -432 65
-209 70 -373 172 -534 334 -203 203 -318 417 -381 707 -25 118 -25 400 0 518
59 273 174 494 355 683 216 225 477 363 787 414 104 17 373 11 475 -11z"/>
<path d="M25301 21129 c-373 -48 -725 -270 -933 -588 -298 -456 -287 -1055 27
-1496 334 -470 929 -671 1476 -499 461 144 809 537 906 1022 26 130 23 375 -5
509 -119 554 -552 965 -1104 1047 -112 17 -261 19 -367 5z m479 -122 c278 -74
515 -234 688 -462 72 -95 166 -289 196 -402 120 -455 -8 -910 -345 -1228 -222
-208 -489 -319 -799 -332 -349 -14 -667 111 -916 361 -175 176 -275 354 -335
596 -31 127 -34 389 -5 520 108 495 492 870 991 966 48 9 126 12 250 10 153
-3 194 -8 275 -29z"/>
<path d="M25290 20975 c-277 -44 -548 -199 -724 -414 -46 -57 -57 -75 -50 -90
22 -45 340 -591 344 -591 4 0 629 1079 638 1102 5 12 -110 8 -208 -7z"/>
<path d="M25561 20961 c-10 -14 -80 -134 -156 -266 -75 -132 -148 -256 -160
-276 -13 -20 -21 -40 -18 -43 4 -3 291 -6 640 -6 500 0 633 3 633 13 0 25
-115 181 -190 257 -174 175 -405 295 -643 333 l-88 14 -18 -26z"/>
<path d="M24422 20338 c-138 -280 -161 -598 -65 -893 14 -44 32 -92 40 -107
l14 -28 350 0 c193 0 349 4 347 8 -10 28 -634 1102 -639 1102 -4 0 -25 -37
-47 -82z"/>
<path d="M25877 20242 c189 -337 600 -1039 606 -1035 15 9 78 145 107 231 79
235 80 502 3 737 -14 44 -32 92 -40 108 l-14 27 -350 0 -351 0 39 -68z"/>
<path d="M25765 19190 c-175 -303 -315 -553 -312 -556 11 -11 235 17 327 42
113 30 276 105 369 171 79 56 197 168 252 240 l41 52 -174 300 c-95 166 -176
301 -179 301 -4 0 -149 -248 -324 -550z"/>
<path d="M24461 19213 c100 -168 255 -321 429 -423 114 -67 297 -129 430 -145
l56 -7 167 290 c92 159 170 297 173 306 6 15 -49 16 -636 16 l-642 0 23 -37z"/>
<path d="M29140 18090 l0 -4300 2213 0 c1472 0 2241 3 2297 10 261 32 472 140
595 302 96 127 162 308 184 511 7 57 11 321 11 647 l0 550 -1390 0 -1390 0 0
640 0 640 818 0 c500 0 850 4 902 10 465 57 714 298 785 760 12 75 15 218 15
683 l0 587 -1260 0 -1260 0 2 618 3 617 1015 6 c1115 6 1047 2 1231 69 300
108 476 366 518 758 7 62 11 318 11 647 l0 545 -2650 0 -2650 0 0 -4300z"/>
<path d="M35490 22315 l0 -35 53 0 c135 -1 410 -53 602 -116 136 -44 381 -163
497 -241 377 -253 711 -641 931 -1081 174 -349 255 -668 264 -1047 9 -348 -30
-660 -124 -985 -115 -402 -342 -779 -635 -1055 -80 -75 -267 -224 -347 -276
l-25 -16 464 -634 c255 -349 501 -683 547 -742 214 -273 319 -472 381 -716 37
-148 37 -332 0 -472 -60 -225 -148 -371 -332 -554 -229 -227 -450 -356 -736
-428 -116 -29 -137 -32 -295 -31 -153 0 -180 2 -270 27 -295 79 -638 337 -870
652 -48 66 -92 124 -97 129 -4 6 -8 -205 -8 -467 l0 -477 2213 0 c1472 0 2241
3 2297 10 261 32 472 140 595 302 96 127 162 308 184 511 7 57 11 321 11 647
l0 550 -1390 0 -1390 0 0 640 0 640 823 0 c515 0 854 4 907 11 360 44 599 213
711 502 73 190 72 181 76 890 l4 637 -1261 0 -1260 0 2 618 3 617 1015 6 c929
5 1021 7 1090 23 397 95 612 355 660 798 5 55 10 336 10 648 l0 550 -2650 0
-2650 0 0 -35z"/>
</g>
</svg>
